<svg xmlns="http://www.w3.org/2000/svg" width="1040" height="720" viewBox="0 0 1040 720"><rect width="1040" height="720" rx="5" fill="#282d35"/><circle cx="20" cy="20" r="6" fill="#ff5f58"/><circle cx="40" cy="20" r="6" fill="#ffbd2e"/><circle cx="60" cy="20" r="6" fill="#18c132"/><svg x="15" y="50" width="1000" height="660" viewBox="0 0 1000 660" overflow="hidden"><style>@keyframes a{0%{transform:translateX(-0px)}1.74598%{transform:translateX(-1000px)}9.948027%{transform:translateX(-2000px)}18.141952%{transform:translateX(-3000px)}26.36024%{transform:translateX(-4000px)}42.666883%{transform:translateX(-5000px)}50.885171%{transform:translateX(-6000px)}67.126847%{transform:translateX(-7000px)}75.328894%{transform:translateX(-8000px)}83.52282%{transform:translateX(-9000px)}91.732987%{transform:translateX(-10000px)}100%{transform:translateX(-11000px)}}.r{animation:a 12.314s steps(1,end) infinite}.s0{fill:#282d35}.s1{fill:#282d35;font-weight:700}.s2{fill:#767676}.s3{fill:#8787af}.s4{fill:#87afff}.s5{fill:#87afff;font-weight:700}.s6{fill:#87d7ff}.s7{fill:#afd7af}.s8{fill:#b9c0cb;font-style:italic}.s9{fill:#b9c0cb;font-weight:700}.s10{fill:#d7afff}.s11{fill:#d7d7ff}.s12{fill:#ff87af;font-weight:700}.s13{fill:#ffaf87;font-weight:700}.s14{fill:#ffd7af;font-weight:700}text{white-space:pre;font-kerning:none;font-variant-ligatures:none;font-synthesis:none;font-optical-sizing:none;-webkit-font-smoothing:antialiased;text-rendering:optimizeLegibility;text-decoration-skip-ink:none;text-decoration-thickness:1px;text-underline-offset:2px;letter-spacing:0.4px}</style><g font-family="&apos;JetBrains Mono&apos;,&apos;Fira Code&apos;,&apos;SF Mono&apos;,Menlo,Consolas,&apos;DejaVu Sans Mono&apos;,&apos;Liberation Mono&apos;,&apos;Symbols Nerd Font Mono&apos;,&apos;Symbols Nerd Font&apos;,&apos;Powerline Symbols&apos;,&apos;Apple Symbols&apos;,&apos;Segoe UI Symbol&apos;,&apos;Noto Sans Symbols 2&apos;,&apos;Noto Sans Symbols&apos;,&apos;Apple Color Emoji&apos;,&apos;Segoe UI Emoji&apos;,&apos;Noto Color Emoji&apos;,monospace" font-size="16" fill="#b9c0cb" shape-rendering="crispEdges"><defs><g id="c"><rect width="10" height="22" fill="#6f7683"/></g><g id="l0"><path d="M10 10h980v1H10" class="s4"/><text y="16" class="s4">╭</text><text x="990" y="16" class="s4">╮</text></g><g id="l1"><path d="M4 0h1v22H4M994 0h1v22H994" class="s4"/><text x="10" y="16" class="s14">welcome</text><text x="80" y="16" class="s3">.md</text></g><g id="l2"><rect x="10" width="10" height="22" fill="#ff87af"/><path d="M4 0h1v22H4M994 0h1v22H994" class="s4"/><text x="10" y="16" class="s1">#</text><text x="30" y="16" class="s12">Welcome to Rune</text></g><g id="l3"><path d="M4 0h1v22H4M994 0h1v22H994" class="s4"/></g><g id="l4"><path d="M4 0h1v22H4M994 0h1v22H994" class="s4"/><text x="10" y="16" class="s11">Rune is a terminal markdown editor that</text><text x="410" y="16" class="s9">protects your words</text><text x="600" y="16" class="s11">.</text></g><g id="l5"><path d="M4 0h1v22H4M994 0h1v22H994" class="s4"/><text x="10" y="16" class="s13">◈ Try it</text></g><g id="l6"><path d="M4 0h1v22H4M994 0h1v22H994" class="s4"/><text x="10" y="16" class="s7">☐</text><text x="30" y="16" class="s11">toggle the explorer</text></g><g id="l7"><path d="M4 0h1v22H4M994 0h1v22H994" class="s4"/><text x="10" y="16" class="s7">☑</text><text x="30" y="16" class="s11">open a file</text></g><g id="l8"><rect x="210" width="40" height="22" fill="#4e4e4e"/><path d="M4 0h1v22H4M994 0h1v22H994" class="s4"/><text x="10" y="16" class="s3">•</text><text x="30" y="16" class="s8">Italic</text><text x="90" y="16" class="s11">,</text><text x="110" y="16" class="s9">bold</text><text x="150" y="16" class="s11">, and</text><text x="210" y="16" class="s6">code</text><text x="260" y="16" class="s11">render live.</text></g><g id="l9"><path d="M4 0h1v22H4M994 0h1v22H994" class="s4"/><text x="10" y="16" class="s2">▎</text><text x="20" y="16" class="s11">Your words are safe: every edit lands in the recovery store.</text></g><g id="l10"><path d="M4 0h1v22H4M994 0h1v22H994" class="s4"/><text x="10" y="16" class="s14">welcome</text><text x="80" y="16" class="s3">.md</text><text x="120" y="16" class="s12">•</text></g><g id="l11"><path d="M10 10h20v1H10M240 10h400v1H240M970 10h20v1H970" class="s4"/><text y="16" class="s4">╰</text><text x="40" y="16" class="s5">^[</text><text x="70" y="16" class="s3">back  ^] forward</text><text x="650" y="16" class="s10">tmp</text><text x="680" y="16" class="s3">/</text><text x="690" y="16" class="s10">tmp.AmSkep5ITx</text><text x="840" y="16" class="s3">›</text><text x="860" y="16" class="s10">welcome.md</text><text x="990" y="16" class="s4">╯</text></g><g id="l12"><path d="M4 0h1v22H4M994 0h1v22H994" class="s4"/><text x="10" y="16" class="s12">◉ Hello</text></g><g id="l13"><rect x="0" width="1000" height="22" fill="#3a3a3a"/><text y="16" class="s5">^S</text><text x="30" y="16" class="s3">save</text><text x="90" y="16" class="s5">^B</text><text x="120" y="16" class="s3">explorer</text><text x="220" y="16" class="s5">^T</text><text x="250" y="16" class="s3">tabs</text><text x="310" y="16" class="s5">^R</text><text x="340" y="16" class="s3">rename</text><text x="420" y="16" class="s5">F1</text><text x="450" y="16" class="s3">help</text><text x="510" y="16" class="s5">^C</text><text x="540" y="16" class="s3">quit</text><text x="600" y="16" class="s5">^W</text><text x="630" y="16" class="s3">close</text><text x="700" y="16" class="s5">^N</text><text x="730" y="16" class="s3">new</text><text x="780" y="16" class="s5">^P</text><text x="810" y="16" class="s3">reading</text><text x="890" y="16" class="s10">Ln 2, Col 1</text></g><g id="l14"><rect x="0" width="1000" height="22" fill="#3a3a3a"/><text y="16" class="s5">^S</text><text x="30" y="16" class="s3">save</text><text x="90" y="16" class="s5">^B</text><text x="120" y="16" class="s3">explorer</text><text x="220" y="16" class="s5">^T</text><text x="250" y="16" class="s3">tabs</text><text x="310" y="16" class="s5">^R</text><text x="340" y="16" class="s3">rename</text><text x="420" y="16" class="s5">F1</text><text x="450" y="16" class="s3">help</text><text x="510" y="16" class="s5">^C</text><text x="540" y="16" class="s3">quit</text><text x="600" y="16" class="s5">^W</text><text x="630" y="16" class="s3">close</text><text x="700" y="16" class="s5">^N</text><text x="730" y="16" class="s3">new</text><text x="780" y="16" class="s5">^P</text><text x="810" y="16" class="s3">reading</text><text x="890" y="16" class="s10">Ln 3, Col 1</text></g><g id="l15"><path d="M4 0h1v22H4M994 0h1v22H994" class="s4"/><text x="10" y="16" class="s11">Rune renders</text><text x="140" y="16" class="s9">bold</text><text x="190" y="16" class="s11">text as you type.</text></g><g id="l16"><path d="M4 0h1v22H4M994 0h1v22H994" class="s4"/><text x="10" y="16" class="s7">☐</text><text x="30" y="16" class="s11">try rune</text></g><g id="l17"><path d="M4 0h1v22H4M994 0h1v22H994" class="s4"/><text x="10" y="16" class="s12">◉ Welcome to Rune</text></g><g id="l18"><rect x="10" width="10" height="22" fill="#b9c0cb"/><path d="M4 0h1v22H4M994 0h1v22H994" class="s4"/></g></defs><g class="r"><g transform="translate(0 0)"><use href="#l0" y="0"/><use href="#l1" y="22"/><use href="#l2" y="44"/><use href="#l3" y="66"/><use href="#l4" y="88"/><use href="#l3" y="110"/><use href="#l5" y="132"/><use href="#l3" y="154"/><use href="#l6" y="176"/><use href="#l7" y="198"/><use href="#l8" y="220"/><use href="#l3" y="242"/><use href="#l9" y="264"/><use href="#l3" y="286"/><use href="#l3" y="308"/><use href="#l3" y="330"/><use href="#l3" y="352"/><use href="#l3" y="374"/><use href="#l3" y="396"/><use href="#l3" y="418"/><use href="#l3" y="440"/><use href="#l3" y="462"/><use href="#l3" y="484"/><use href="#l3" y="506"/><use href="#l3" y="528"/><use href="#l3" y="550"/><use href="#l3" y="572"/><use href="#l3" y="594"/><g transform="translate(0 616)"><path d="M10 10h20v1H10M240 10h400v1H240M970 10h20v1H970" class="s4"/><text y="16" class="s4">╰</text><text x="40" y="16" class="s3">^[ back  ^] forward</text><text x="650" y="16" class="s10">tmp</text><text x="680" y="16" class="s3">/</text><text x="690" y="16" class="s10">tmp.AmSkep5ITx</text><text x="840" y="16" class="s3">›</text><text x="860" y="16" class="s10">welcome.md</text><text x="990" y="16" class="s4">╯</text></g><g transform="translate(0 638)"><rect x="0" width="1000" height="22" fill="#3a3a3a"/><text y="16" class="s3">^S save</text><text x="90" y="16" class="s5">^B</text><text x="120" y="16" class="s3">explorer</text><text x="220" y="16" class="s5">^T</text><text x="250" y="16" class="s3">tabs</text><text x="310" y="16" class="s5">^R</text><text x="340" y="16" class="s3">rename</text><text x="420" y="16" class="s5">F1</text><text x="450" y="16" class="s3">help</text><text x="510" y="16" class="s5">^C</text><text x="540" y="16" class="s3">quit</text><text x="600" y="16" class="s5">^W</text><text x="630" y="16" class="s3">close</text><text x="700" y="16" class="s5">^N</text><text x="730" y="16" class="s3">new</text><text x="780" y="16" class="s5">^P</text><text x="810" y="16" class="s3">reading</text><text x="890" y="16" class="s10">Ln 1, Col 1</text></g></g><g transform="translate(1000 0)"><use href="#l0" y="0"/><use href="#l10" y="22"/><g transform="translate(0 44)"><rect x="80" width="10" height="22" fill="#ff87af"/><path d="M4 0h1v22H4M994 0h1v22H994" class="s4"/><text x="10" y="16" class="s12"># Hello</text><text x="80" y="16" class="s1">#</text><text x="100" y="16" class="s12">Welcome to Rune</text></g><use href="#l3" y="66"/><use href="#l4" y="88"/><use href="#l3" y="110"/><use href="#l5" y="132"/><use href="#l3" y="154"/><use href="#l6" y="176"/><use href="#l7" y="198"/><use href="#l8" y="220"/><use href="#l3" y="242"/><use href="#l9" y="264"/><use href="#l3" y="286"/><use href="#l3" y="308"/><use href="#l3" y="330"/><use href="#l3" y="352"/><use href="#l3" y="374"/><use href="#l3" y="396"/><use href="#l3" y="418"/><use href="#l3" y="440"/><use href="#l3" y="462"/><use href="#l3" y="484"/><use href="#l3" y="506"/><use href="#l3" y="528"/><use href="#l3" y="550"/><use href="#l3" y="572"/><use href="#l3" y="594"/><use href="#l11" y="616"/><g transform="translate(0 638)"><rect x="0" width="1000" height="22" fill="#3a3a3a"/><text y="16" class="s5">^S</text><text x="30" y="16" class="s3">save</text><text x="90" y="16" class="s5">^B</text><text x="120" y="16" class="s3">explorer</text><text x="220" y="16" class="s5">^T</text><text x="250" y="16" class="s3">tabs</text><text x="310" y="16" class="s5">^R</text><text x="340" y="16" class="s3">rename</text><text x="420" y="16" class="s5">F1</text><text x="450" y="16" class="s3">help</text><text x="510" y="16" class="s5">^C</text><text x="540" y="16" class="s3">quit</text><text x="600" y="16" class="s5">^W</text><text x="630" y="16" class="s3">close</text><text x="700" y="16" class="s5">^N</text><text x="730" y="16" class="s3">new</text><text x="780" y="16" class="s5">^P</text><text x="810" y="16" class="s3">reading</text><text x="890" y="16" class="s10">Ln 1, Col 8</text></g></g><g transform="translate(2000 0)"><use href="#l0" y="0"/><use href="#l10" y="22"/><use href="#l12" y="44"/><use href="#l2" y="66"/><use href="#l3" y="88"/><use href="#l4" y="110"/><use href="#l3" y="132"/><use href="#l5" y="154"/><use href="#l3" y="176"/><use href="#l6" y="198"/><use href="#l7" y="220"/><use href="#l8" y="242"/><use href="#l3" y="264"/><use href="#l9" y="286"/><use href="#l3" y="308"/><use href="#l3" y="330"/><use href="#l3" y="352"/><use href="#l3" y="374"/><use href="#l3" y="396"/><use href="#l3" y="418"/><use href="#l3" y="440"/><use href="#l3" y="462"/><use href="#l3" y="484"/><use href="#l3" y="506"/><use href="#l3" y="528"/><use href="#l3" y="550"/><use href="#l3" y="572"/><use href="#l3" y="594"/><use href="#l11" y="616"/><use href="#l13" y="638"/></g><g transform="translate(3000 0)"><use href="#l0" y="0"/><use href="#l10" y="22"/><use href="#l12" y="44"/><use href="#l3" y="66"/><use href="#l2" y="88"/><use href="#l3" y="110"/><use href="#l4" y="132"/><use href="#l3" y="154"/><use href="#l5" y="176"/><use href="#l3" y="198"/><use href="#l6" y="220"/><use href="#l7" y="242"/><use href="#l8" y="264"/><use href="#l3" y="286"/><use href="#l9" y="308"/><use href="#l3" y="330"/><use href="#l3" y="352"/><use href="#l3" y="374"/><use href="#l3" y="396"/><use href="#l3" y="418"/><use href="#l3" y="440"/><use href="#l3" y="462"/><use href="#l3" y="484"/><use href="#l3" y="506"/><use href="#l3" y="528"/><use href="#l3" y="550"/><use href="#l3" y="572"/><use href="#l3" y="594"/><use href="#l11" y="616"/><use href="#l14" y="638"/></g><g transform="translate(4000 0)"><use href="#l0" y="0"/><use href="#l10" y="22"/><use href="#l12" y="44"/><use href="#l3" y="66"/><g transform="translate(0 88)"><rect x="360" width="10" height="22" fill="#d7d7ff"/><path d="M4 0h1v22H4M994 0h1v22H994" class="s4"/><text x="10" y="16" class="s11">Rune renders</text><text x="140" y="16" class="s9">bold</text><text x="190" y="16" class="s11">text as you type.</text><text x="360" y="16" class="s0">#</text><text x="380" y="16" class="s11">Welcome to Rune</text></g><use href="#l3" y="110"/><use href="#l4" y="132"/><use href="#l3" y="154"/><use href="#l5" y="176"/><use href="#l3" y="198"/><use href="#l6" y="220"/><use href="#l7" y="242"/><use href="#l8" y="264"/><use href="#l3" y="286"/><use href="#l9" y="308"/><use href="#l3" y="330"/><use href="#l3" y="352"/><use href="#l3" y="374"/><use href="#l3" y="396"/><use href="#l3" y="418"/><use href="#l3" y="440"/><use href="#l3" y="462"/><use href="#l3" y="484"/><use href="#l3" y="506"/><use href="#l3" y="528"/><use href="#l3" y="550"/><use href="#l3" y="572"/><use href="#l3" y="594"/><use href="#l11" y="616"/><g transform="translate(0 638)"><rect x="0" width="1000" height="22" fill="#3a3a3a"/><text y="16" class="s5">^S</text><text x="30" y="16" class="s3">save</text><text x="90" y="16" class="s5">^B</text><text x="120" y="16" class="s3">explorer</text><text x="220" y="16" class="s5">^T</text><text x="250" y="16" class="s3">tabs</text><text x="310" y="16" class="s5">^R</text><text x="340" y="16" class="s3">rename</text><text x="420" y="16" class="s5">F1</text><text x="450" y="16" class="s3">help</text><text x="510" y="16" class="s5">^C</text><text x="540" y="16" class="s3">quit</text><text x="600" y="16" class="s5">^W</text><text x="630" y="16" class="s3">close</text><text x="700" y="16" class="s5">^N</text><text x="730" y="16" class="s3">new</text><text x="780" y="16" class="s5">^P</text><text x="810" y="16" class="s3">reading</text><text x="880" y="16" class="s10">Ln 3, Col 40</text></g></g><g transform="translate(5000 0)"><use href="#l0" y="0"/><use href="#l10" y="22"/><use href="#l12" y="44"/><use href="#l3" y="66"/><use href="#l15" y="88"/><use href="#l2" y="110"/><use href="#l3" y="132"/><use href="#l4" y="154"/><use href="#l3" y="176"/><use href="#l5" y="198"/><use href="#l3" y="220"/><use href="#l6" y="242"/><use href="#l7" y="264"/><use href="#l8" y="286"/><use href="#l3" y="308"/><use href="#l9" y="330"/><use href="#l3" y="352"/><use href="#l3" y="374"/><use href="#l3" y="396"/><use href="#l3" y="418"/><use href="#l3" y="440"/><use href="#l3" y="462"/><use href="#l3" y="484"/><use href="#l3" y="506"/><use href="#l3" y="528"/><use href="#l3" y="550"/><use href="#l3" y="572"/><use href="#l3" y="594"/><use href="#l11" y="616"/><g transform="translate(0 638)"><rect x="0" width="1000" height="22" fill="#3a3a3a"/><text y="16" class="s5">^S</text><text x="30" y="16" class="s3">save</text><text x="90" y="16" class="s5">^B</text><text x="120" y="16" class="s3">explorer</text><text x="220" y="16" class="s5">^T</text><text x="250" y="16" class="s3">tabs</text><text x="310" y="16" class="s5">^R</text><text x="340" y="16" class="s3">rename</text><text x="420" y="16" class="s5">F1</text><text x="450" y="16" class="s3">help</text><text x="510" y="16" class="s5">^C</text><text x="540" y="16" class="s3">quit</text><text x="600" y="16" class="s5">^W</text><text x="630" y="16" class="s3">close</text><text x="700" y="16" class="s5">^N</text><text x="730" y="16" class="s3">new</text><text x="780" y="16" class="s5">^P</text><text x="810" y="16" class="s3">reading</text><text x="890" y="16" class="s10">Ln 4, Col 1</text></g></g><g transform="translate(6000 0)"><use href="#l0" y="0"/><use href="#l10" y="22"/><use href="#l12" y="44"/><use href="#l3" y="66"/><use href="#l15" y="88"/><g transform="translate(0 110)"><rect x="150" width="10" height="22" fill="#d7d7ff"/><path d="M4 0h1v22H4M994 0h1v22H994" class="s4"/><text x="10" y="16" class="s7">- [ ]</text><text x="70" y="16" class="s11">try rune</text><text x="150" y="16" class="s0">#</text><text x="170" y="16" class="s11">Welcome to Rune</text></g><use href="#l3" y="132"/><use href="#l4" y="154"/><use href="#l3" y="176"/><use href="#l5" y="198"/><use href="#l3" y="220"/><use href="#l6" y="242"/><use href="#l7" y="264"/><use href="#l8" y="286"/><use href="#l3" y="308"/><use href="#l9" y="330"/><use href="#l3" y="352"/><use href="#l3" y="374"/><use href="#l3" y="396"/><use href="#l3" y="418"/><use href="#l3" y="440"/><use href="#l3" y="462"/><use href="#l3" y="484"/><use href="#l3" y="506"/><use href="#l3" y="528"/><use href="#l3" y="550"/><use href="#l3" y="572"/><use href="#l3" y="594"/><use href="#l11" y="616"/><g transform="translate(0 638)"><rect x="0" width="1000" height="22" fill="#3a3a3a"/><text y="16" class="s5">^S</text><text x="30" y="16" class="s3">save</text><text x="90" y="16" class="s5">^B</text><text x="120" y="16" class="s3">explorer</text><text x="220" y="16" class="s5">^T</text><text x="250" y="16" class="s3">tabs</text><text x="310" y="16" class="s5">^R</text><text x="340" y="16" class="s3">rename</text><text x="420" y="16" class="s5">F1</text><text x="450" y="16" class="s3">help</text><text x="510" y="16" class="s5">^C</text><text x="540" y="16" class="s3">quit</text><text x="600" y="16" class="s5">^W</text><text x="630" y="16" class="s3">close</text><text x="700" y="16" class="s5">^N</text><text x="730" y="16" class="s3">new</text><text x="780" y="16" class="s5">^P</text><text x="810" y="16" class="s3">reading</text><text x="880" y="16" class="s10">Ln 4, Col 15</text></g></g><g transform="translate(7000 0)"><use href="#l0" y="0"/><use href="#l10" y="22"/><use href="#l12" y="44"/><use href="#l3" y="66"/><use href="#l15" y="88"/><use href="#l16" y="110"/><use href="#l2" y="132"/><use href="#l3" y="154"/><use href="#l4" y="176"/><use href="#l3" y="198"/><use href="#l5" y="220"/><use href="#l3" y="242"/><use href="#l6" y="264"/><use href="#l7" y="286"/><use href="#l8" y="308"/><use href="#l3" y="330"/><use href="#l9" y="352"/><use href="#l3" y="374"/><use href="#l3" y="396"/><use href="#l3" y="418"/><use href="#l3" y="440"/><use href="#l3" y="462"/><use href="#l3" y="484"/><use href="#l3" y="506"/><use href="#l3" y="528"/><use href="#l3" y="550"/><use href="#l3" y="572"/><use href="#l3" y="594"/><use href="#l11" y="616"/><g transform="translate(0 638)"><rect x="0" width="1000" height="22" fill="#3a3a3a"/><text y="16" class="s5">^S</text><text x="30" y="16" class="s3">save</text><text x="90" y="16" class="s5">^B</text><text x="120" y="16" class="s3">explorer</text><text x="220" y="16" class="s5">^T</text><text x="250" y="16" class="s3">tabs</text><text x="310" y="16" class="s5">^R</text><text x="340" y="16" class="s3">rename</text><text x="420" y="16" class="s5">F1</text><text x="450" y="16" class="s3">help</text><text x="510" y="16" class="s5">^C</text><text x="540" y="16" class="s3">quit</text><text x="600" y="16" class="s5">^W</text><text x="630" y="16" class="s3">close</text><text x="700" y="16" class="s5">^N</text><text x="730" y="16" class="s3">new</text><text x="780" y="16" class="s5">^P</text><text x="810" y="16" class="s3">reading</text><text x="890" y="16" class="s10">Ln 5, Col 1</text></g></g><g transform="translate(8000 0)"><use href="#l0" y="0"/><use href="#l10" y="22"/><use href="#l12" y="44"/><use href="#l3" y="66"/><use href="#l15" y="88"/><g transform="translate(0 110)"><rect x="30" width="10" height="22" fill="#afd7af"/><path d="M4 0h1v22H4M994 0h1v22H994" class="s4"/><text x="10" y="16" class="s7">-</text><text x="30" y="16" class="s0">[</text><text x="50" y="16" class="s7">]</text><text x="70" y="16" class="s11">try rune</text></g><use href="#l17" y="132"/><use href="#l3" y="154"/><use href="#l4" y="176"/><use href="#l3" y="198"/><use href="#l5" y="220"/><use href="#l3" y="242"/><use href="#l6" y="264"/><use href="#l7" y="286"/><use href="#l8" y="308"/><use href="#l3" y="330"/><use href="#l9" y="352"/><use href="#l3" y="374"/><use href="#l3" y="396"/><use href="#l3" y="418"/><use href="#l3" y="440"/><use href="#l3" y="462"/><use href="#l3" y="484"/><use href="#l3" y="506"/><use href="#l3" y="528"/><use href="#l3" y="550"/><use href="#l3" y="572"/><use href="#l3" y="594"/><use href="#l11" y="616"/><g transform="translate(0 638)"><rect x="0" width="1000" height="22" fill="#3a3a3a"/><text y="16" class="s5">^S</text><text x="30" y="16" class="s3">save</text><text x="90" y="16" class="s5">^B</text><text x="120" y="16" class="s3">explorer</text><text x="220" y="16" class="s5">^T</text><text x="250" y="16" class="s3">tabs</text><text x="310" y="16" class="s5">^R</text><text x="340" y="16" class="s3">rename</text><text x="420" y="16" class="s5">F1</text><text x="450" y="16" class="s3">help</text><text x="510" y="16" class="s5">^C</text><text x="540" y="16" class="s3">quit</text><text x="600" y="16" class="s5">^W</text><text x="630" y="16" class="s3">close</text><text x="700" y="16" class="s5">^N</text><text x="730" y="16" class="s3">new</text><text x="780" y="16" class="s5">^P</text><text x="810" y="16" class="s3">reading</text><text x="890" y="16" class="s10">Ln 4, Col 3</text></g></g><g transform="translate(9000 0)"><use href="#l0" y="0"/><use href="#l10" y="22"/><use href="#l12" y="44"/><use href="#l3" y="66"/><g transform="translate(0 88)"><rect x="10" width="10" height="22" fill="#d7d7ff"/><path d="M4 0h1v22H4M994 0h1v22H994" class="s4"/><text x="10" y="16" class="s0">R</text><text x="20" y="16" class="s11">une renders</text><text x="140" y="16" class="s9">bold</text><text x="190" y="16" class="s11">text as you type.</text></g><use href="#l16" y="110"/><use href="#l17" y="132"/><use href="#l3" y="154"/><use href="#l4" y="176"/><use href="#l3" y="198"/><use href="#l5" y="220"/><use href="#l3" y="242"/><use href="#l6" y="264"/><use href="#l7" y="286"/><use href="#l8" y="308"/><use href="#l3" y="330"/><use href="#l9" y="352"/><use href="#l3" y="374"/><use href="#l3" y="396"/><use href="#l3" y="418"/><use href="#l3" y="440"/><use href="#l3" y="462"/><use href="#l3" y="484"/><use href="#l3" y="506"/><use href="#l3" y="528"/><use href="#l3" y="550"/><use href="#l3" y="572"/><use href="#l3" y="594"/><use href="#l11" y="616"/><use href="#l14" y="638"/></g><g transform="translate(10000 0)"><use href="#l0" y="0"/><use href="#l10" y="22"/><use href="#l12" y="44"/><use href="#l18" y="66"/><use href="#l15" y="88"/><use href="#l16" y="110"/><use href="#l17" y="132"/><use href="#l3" y="154"/><use href="#l4" y="176"/><use href="#l3" y="198"/><use href="#l5" y="220"/><use href="#l3" y="242"/><use href="#l6" y="264"/><use href="#l7" y="286"/><use href="#l8" y="308"/><use href="#l3" y="330"/><use href="#l9" y="352"/><use href="#l3" y="374"/><use href="#l3" y="396"/><use href="#l3" y="418"/><use href="#l3" y="440"/><use href="#l3" y="462"/><use href="#l3" y="484"/><use href="#l3" y="506"/><use href="#l3" y="528"/><use href="#l3" y="550"/><use href="#l3" y="572"/><use href="#l3" y="594"/><use href="#l11" y="616"/><use href="#l13" y="638"/></g><g transform="translate(11000 0)"><use href="#l0" y="0"/><use href="#l1" y="22"/><use href="#l12" y="44"/><use href="#l18" y="66"/><use href="#l15" y="88"/><use href="#l16" y="110"/><use href="#l17" y="132"/><use href="#l3" y="154"/><use href="#l4" y="176"/><use href="#l3" y="198"/><use href="#l5" y="220"/><use href="#l3" y="242"/><use href="#l6" y="264"/><use href="#l7" y="286"/><use href="#l8" y="308"/><use href="#l3" y="330"/><use href="#l9" y="352"/><use href="#l3" y="374"/><use href="#l3" y="396"/><use href="#l3" y="418"/><use href="#l3" y="440"/><use href="#l3" y="462"/><use href="#l3" y="484"/><use href="#l3" y="506"/><use href="#l3" y="528"/><use href="#l3" y="550"/><use href="#l3" y="572"/><use href="#l3" y="594"/><use href="#l11" y="616"/><g transform="translate(0 638)"><rect x="0" width="1000" height="22" fill="#3a3a3a"/><text y="16" class="s3">^S save</text><text x="90" y="16" class="s5">^B</text><text x="120" y="16" class="s3">explorer</text><text x="220" y="16" class="s5">^T</text><text x="250" y="16" class="s3">tabs</text><text x="310" y="16" class="s5">^R</text><text x="340" y="16" class="s3">rename</text><text x="420" y="16" class="s5">F1</text><text x="450" y="16" class="s3">help</text><text x="510" y="16" class="s5">^C</text><text x="540" y="16" class="s3">quit</text><text x="600" y="16" class="s5">^W</text><text x="630" y="16" class="s3">close</text><text x="700" y="16" class="s5">^N</text><text x="730" y="16" class="s3">new</text><text x="780" y="16" class="s5">^P</text><text x="810" y="16" class="s3">reading</text><text x="890" y="16" class="s10">Ln 2, Col 1</text></g></g></g></g></svg></svg>