<svg xmlns="http://www.w3.org/2000/svg" width="1040" height="720" viewBox="0 0 1040 720"><rect width="1040" height="720" rx="5" fill="#282d35"/><circle cx="20" cy="20" r="6" fill="#ff5f58"/><circle cx="40" cy="20" r="6" fill="#ffbd2e"/><circle cx="60" cy="20" r="6" fill="#18c132"/><svg x="15" y="50" width="1000" height="660" viewBox="0 0 1000 660" overflow="hidden"><style>@keyframes a{0%{transform:translateX(-0px)}4.062859%{transform:translateX(-1000px)}42.391721%{transform:translateX(-2000px)}57.167497%{transform:translateX(-3000px)}61.671138%{transform:translateX(-4000px)}100%{transform:translateX(-5000px)}}.r{animation:a 5.218s steps(1,end) infinite}.s0{fill:#282d35;font-weight:700}.s1{fill:#626262}.s2{fill:#767676}.s3{fill:#8787af}.s4{fill:#8787af;font-style:italic}.s5{fill:#87afff}.s6{fill:#87afff;font-weight:700}.s7{fill:#87d7ff}.s8{fill:#afd7af}.s9{fill:#b9c0cb;font-style:italic}.s10{fill:#b9c0cb;font-weight:700}.s11{fill:#d7afff}.s12{fill:#d7afff;font-weight:700}.s13{fill:#d7d7ff}.s14{fill:#d7d7ff;font-weight:700}.s15{fill:#ff87af;font-weight:700}.s16{fill:#ffaf87;font-weight:700}.s17{fill:#ffd7af;font-weight:700}text{white-space:pre;font-kerning:none;font-variant-ligatures:none;font-synthesis:none;font-optical-sizing:none;-webkit-font-smoothing:antialiased;text-rendering:optimizeLegibility;text-decoration-skip-ink:none;text-decoration-thickness:1px;text-underline-offset:2px;letter-spacing:0.4px}</style><g font-family="&apos;JetBrains Mono&apos;,&apos;Fira Code&apos;,&apos;SF Mono&apos;,Menlo,Consolas,&apos;DejaVu Sans Mono&apos;,&apos;Liberation Mono&apos;,&apos;Symbols Nerd Font Mono&apos;,&apos;Symbols Nerd Font&apos;,&apos;Powerline Symbols&apos;,&apos;Apple Symbols&apos;,&apos;Segoe UI Symbol&apos;,&apos;Noto Sans Symbols 2&apos;,&apos;Noto Sans Symbols&apos;,&apos;Apple Color Emoji&apos;,&apos;Segoe UI Emoji&apos;,&apos;Noto Color Emoji&apos;,monospace" font-size="16" fill="#b9c0cb" shape-rendering="crispEdges"><defs><g id="c"><rect width="10" height="22" fill="#6f7683"/></g><g id="l0"><path d="M10 10h980v1H10" class="s5"/><text y="16" class="s5">╭</text><text x="990" y="16" class="s5">╮</text></g><g id="l1"><path d="M4 0h1v22H4M994 0h1v22H994" class="s5"/></g><g id="l2"><rect x="0" width="1000" height="22" fill="#3a3a3a"/><text y="16" class="s3">^S save</text><text x="90" y="16" class="s6">^B</text><text x="120" y="16" class="s3">explorer</text><text x="220" y="16" class="s6">^T</text><text x="250" y="16" class="s3">tabs</text><text x="310" y="16" class="s6">^R</text><text x="340" y="16" class="s3">rename</text><text x="420" y="16" class="s6">F1</text><text x="450" y="16" class="s3">help</text><text x="510" y="16" class="s6">^C</text><text x="540" y="16" class="s3">quit</text><text x="600" y="16" class="s6">^W</text><text x="630" y="16" class="s3">close</text><text x="700" y="16" class="s6">^N</text><text x="730" y="16" class="s3">new</text><text x="780" y="16" class="s6">^P</text><text x="810" y="16" class="s3">reading</text><text x="890" y="16" class="s11">Ln 1, Col 1</text></g><g id="l3"><path d="M80 10h130v1H80" class="s5"/><path d="M230 10h760v1H230" class="s3"/><text y="16" class="s5">╭ Files</text><text x="210" y="16" class="s5">╮</text><text x="220" y="16" class="s3">╭</text><text x="990" y="16" class="s3">╮</text></g><g id="l4"><path d="M4 0h1v22H4M214 0h1v22H214" class="s5"/><path d="M224 0h1v22H224M994 0h1v22H994" class="s3"/><text x="30" y="16" class="s6">Library/</text></g><g id="l5"><path d="M4 0h1v22H4M214 0h1v22H214" class="s5"/><path d="M224 0h1v22H224M994 0h1v22H994" class="s3"/></g><g id="l6"><path d="M4 0h1v22H4" class="s5"/><path d="M70 10h140v1H70" class="s3"/><path d="M214 0h1v22H214" class="s5"/><path d="M224 0h1v22H224M994 0h1v22H994" class="s3"/><text x="20" y="16" class="s3">Open</text></g><g id="l7"><path d="M4 0h1v22H4M214 0h1v22H214" class="s5"/><path d="M224 0h1v22H224M994 0h1v22H994" class="s3"/><text x="10" y="16" class="s12">/tmp/tmp.bacvfuAom8</text><text x="230" y="16" class="s17">tables</text><text x="290" y="16" class="s3">.md</text></g><g id="l8"><path d="M4 0h1v22H4M214 0h1v22H214" class="s5"/><path d="M224 0h1v22H224M994 0h1v22H994" class="s3"/><text x="30" y="16" class="s6">../</text><text x="230" y="16" class="s15">◉ Layouts</text></g><g id="l9"><path d="M4 0h1v22H4M214 0h1v22H214" class="s5"/><path d="M224 0h1v22H224" class="s3"/><path d="M234 10h6v1H234M234 10h1v12H234M240 10h120v1H240M360 10h10v1H360M364 10h1v12H364M370 10h150v1H370M520 10h5v1H520M524 10h1v12H524" class="s1"/><path d="M994 0h1v22H994" class="s3"/><text x="30" y="16" class="s13">notes.md</text></g><g id="l10"><rect x="10" width="200" height="22" fill="#626262"/><path d="M4 0h1v22H4M214 0h1v22H214" class="s5"/><path d="M224 0h1v22H224" class="s3"/><path d="M234 0h1v22H234M364 0h1v22H364M524 0h1v22H524" class="s1"/><path d="M994 0h1v22H994" class="s3"/><text x="10" y="16" class="s13">› tables.md</text><text x="250" y="16" class="s14">Column</text><text x="380" y="16" class="s14">Purpose</text></g><g id="l11"><path d="M4 0h1v22H4M214 0h1v22H214" class="s5"/><path d="M224 0h1v22H224" class="s3"/><path d="M234 10h6v1H234M234 0h1v22H234M240 10h120v1H240M360 10h10v1H360M364 0h1v22H364M370 10h150v1H370M520 10h5v1H520M524 0h1v22H524" class="s1"/><path d="M994 0h1v22H994" class="s3"/><text x="30" y="16" class="s13">welcome.md</text></g><g id="l12"><path d="M4 0h1v22H4M214 0h1v22H214" class="s5"/><path d="M224 0h1v22H224" class="s3"/><path d="M234 0h1v22H234M364 0h1v22H364M524 0h1v22H524" class="s1"/><path d="M994 0h1v22H994" class="s3"/><text x="250" y="16" class="s13">hue</text><text x="380" y="16" class="s13">what a row is</text></g><g id="l13"><path d="M4 0h1v22H4M214 0h1v22H214" class="s5"/><path d="M224 0h1v22H224" class="s3"/><path d="M234 10h6v1H234M234 0h1v22H234M240 10h120v1H240M360 10h10v1H360M364 0h1v22H364M370 10h150v1H370M520 10h5v1H520M524 0h1v22H524" class="s1"/><path d="M994 0h1v22H994" class="s3"/></g><g id="l14"><path d="M4 0h1v22H4M214 0h1v22H214" class="s5"/><path d="M224 0h1v22H224" class="s3"/><path d="M234 0h1v22H234M364 0h1v22H364M524 0h1v22H524" class="s1"/><path d="M994 0h1v22H994" class="s3"/><text x="250" y="16" class="s13">background</text><text x="380" y="16" class="s13">where you are</text></g><g id="l15"><path d="M4 0h1v22H4M214 0h1v22H214" class="s5"/><path d="M224 0h1v22H224" class="s3"/><path d="M234 10h6v1H234M234 0h1v11H234M240 10h120v1H240M360 10h10v1H360M364 0h1v11H364M370 10h150v1H370M520 10h5v1H520M524 0h1v11H524" class="s1"/><path d="M994 0h1v22H994" class="s3"/></g><g id="l16"><path d="M4 0h1v22H4M214 0h1v22H214" class="s5"/><path d="M224 0h1v22H224M994 0h1v22H994" class="s3"/><text x="30" y="16" class="s3">1:</text><text x="90" y="16" class="s3">welcome.md</text></g><g id="l17"><rect x="10" width="200" height="22" fill="#3a3a3a"/><path d="M4 0h1v22H4M214 0h1v22H214" class="s5"/><path d="M224 0h1v22H224M994 0h1v22H994" class="s3"/><text x="30" y="16" class="s3">2:</text><text x="90" y="16" class="s4">tables.md</text></g><g id="l18"><path d="M10 10h200v1H10" class="s5"/><path d="M230 10h20v1H230M460 10h190v1H460M970 10h20v1H970" class="s3"/><text y="16" class="s5">╰</text><text x="210" y="16" class="s5">╯</text><text x="220" y="16" class="s3">╰</text><text x="260" y="16" class="s3">^[ back  ^] forward</text><text x="660" y="16" class="s11">tmp</text><text x="690" y="16" class="s3">/</text><text x="700" y="16" class="s11">tmp.bacvfuAom8</text><text x="850" y="16" class="s3">›</text><text x="870" y="16" class="s11">tables.md</text><text x="990" y="16" class="s3">╯</text></g><g id="l19"><rect x="0" width="1000" height="22" fill="#3a3a3a"/><text y="16" class="s6">^B</text><text x="30" y="16" class="s3">explorer</text><text x="130" y="16" class="s6">^T</text><text x="160" y="16" class="s3">tabs</text><text x="220" y="16" class="s6">F1</text><text x="250" y="16" class="s3">help</text><text x="310" y="16" class="s6">^C</text><text x="340" y="16" class="s3">quit</text><text x="400" y="16" class="s6">^N</text><text x="430" y="16" class="s3">new</text><text x="480" y="16" class="s6">^P</text><text x="510" y="16" class="s3">reading</text><text x="600" y="16" class="s6">^E</text><text x="630" y="16" class="s3">messages</text><text x="730" y="16" class="s6">⌘⌫</text><text x="760" y="16" class="s3">trash</text><text x="890" y="16" class="s11">Ln 1, Col 1</text></g><g id="l20"><path d="M4 0h1v22H4M214 0h1v22H214" class="s3"/><path d="M224 0h1v22H224M994 0h1v22H994" class="s5"/></g><g id="l21"><path d="M4 0h1v22H4" class="s5"/><path d="M14 10h6v1H14M14 0h1v22H14M20 10h120v1H20M140 10h10v1H140M144 0h1v22H144M150 10h150v1H150M300 10h5v1H300M304 0h1v22H304" class="s1"/><path d="M994 0h1v22H994" class="s5"/></g></defs><g class="r"><g transform="translate(0 0)"><use href="#l0" y="0"/><g transform="translate(0 22)"><path d="M4 0h1v22H4M994 0h1v22H994" class="s5"/><text x="10" y="16" class="s17">welcome</text><text x="80" y="16" class="s3">.md</text></g><g transform="translate(0 44)"><rect x="10" width="10" height="22" fill="#ff87af"/><path d="M4 0h1v22H4M994 0h1v22H994" class="s5"/><text x="10" y="16" class="s0">#</text><text x="30" y="16" class="s15">Welcome to Rune</text></g><use href="#l1" y="66"/><g transform="translate(0 88)"><path d="M4 0h1v22H4M994 0h1v22H994" class="s5"/><text x="10" y="16" class="s13">Rune is a terminal markdown editor that</text><text x="410" y="16" class="s10">protects your words</text><text x="600" y="16" class="s13">.</text></g><use href="#l1" y="110"/><g transform="translate(0 132)"><path d="M4 0h1v22H4M994 0h1v22H994" class="s5"/><text x="10" y="16" class="s16">◈ Try it</text></g><use href="#l1" y="154"/><g transform="translate(0 176)"><path d="M4 0h1v22H4M994 0h1v22H994" class="s5"/><text x="10" y="16" class="s8">☐</text><text x="30" y="16" class="s13">toggle the explorer</text></g><g transform="translate(0 198)"><path d="M4 0h1v22H4M994 0h1v22H994" class="s5"/><text x="10" y="16" class="s8">☑</text><text x="30" y="16" class="s13">open a file</text></g><g transform="translate(0 220)"><rect x="210" width="40" height="22" fill="#4e4e4e"/><path d="M4 0h1v22H4M994 0h1v22H994" class="s5"/><text x="10" y="16" class="s3">•</text><text x="30" y="16" class="s9">Italic</text><text x="90" y="16" class="s13">,</text><text x="110" y="16" class="s10">bold</text><text x="150" y="16" class="s13">, and</text><text x="210" y="16" class="s7">code</text><text x="260" y="16" class="s13">render live.</text></g><use href="#l1" y="242"/><g transform="translate(0 264)"><path d="M4 0h1v22H4M994 0h1v22H994" class="s5"/><text x="10" y="16" class="s2">▎</text><text x="20" y="16" class="s13">Your words are safe: every edit lands in the recovery store.</text></g><use href="#l1" y="286"/><use href="#l1" y="308"/><use href="#l1" y="330"/><use href="#l1" y="352"/><use href="#l1" y="374"/><use href="#l1" y="396"/><use href="#l1" y="418"/><use href="#l1" y="440"/><use href="#l1" y="462"/><use href="#l1" y="484"/><use href="#l1" y="506"/><use href="#l1" y="528"/><use href="#l1" y="550"/><use href="#l1" y="572"/><use href="#l1" y="594"/><g transform="translate(0 616)"><path d="M10 10h20v1H10M240 10h400v1H240M970 10h20v1H970" class="s5"/><text y="16" class="s5">╰</text><text x="40" y="16" class="s3">^[ back  ^] forward</text><text x="650" y="16" class="s11">tmp</text><text x="680" y="16" class="s3">/</text><text x="690" y="16" class="s11">tmp.bacvfuAom8</text><text x="840" y="16" class="s3">›</text><text x="860" y="16" class="s11">welcome.md</text><text x="990" y="16" class="s5">╯</text></g><use href="#l2" y="638"/></g><g transform="translate(1000 0)"><use href="#l3" y="0"/><g transform="translate(0 22)"><path d="M4 0h1v22H4M214 0h1v22H214" class="s5"/><path d="M224 0h1v22H224M994 0h1v22H994" class="s3"/><text x="10" y="16" class="s12">/tmp/tmp.bacvfuAom8</text><text x="230" y="16" class="s17">welcome</text><text x="300" y="16" class="s3">.md</text></g><g transform="translate(0 44)"><path d="M4 0h1v22H4M214 0h1v22H214" class="s5"/><path d="M224 0h1v22H224M994 0h1v22H994" class="s3"/><text x="30" y="16" class="s6">../</text><text x="230" y="16" class="s15">◉ Welcome to Rune</text></g><use href="#l4" y="66"/><g transform="translate(0 88)"><path d="M4 0h1v22H4M214 0h1v22H214" class="s5"/><path d="M224 0h1v22H224M994 0h1v22H994" class="s3"/><text x="30" y="16" class="s13">notes.md</text><text x="230" y="16" class="s13">Rune is a terminal markdown editor that</text><text x="630" y="16" class="s10">protects your words</text><text x="820" y="16" class="s13">.</text></g><g transform="translate(0 110)"><path d="M4 0h1v22H4M214 0h1v22H214" class="s5"/><path d="M224 0h1v22H224M994 0h1v22H994" class="s3"/><text x="30" y="16" class="s13">tables.md</text></g><g transform="translate(0 132)"><rect x="10" width="200" height="22" fill="#626262"/><path d="M4 0h1v22H4M214 0h1v22H214" class="s5"/><path d="M224 0h1v22H224M994 0h1v22H994" class="s3"/><text x="10" y="16" class="s13">› welcome.md</text><text x="230" y="16" class="s16">◈ Try it</text></g><use href="#l5" y="154"/><g transform="translate(0 176)"><path d="M4 0h1v22H4M214 0h1v22H214" class="s5"/><path d="M224 0h1v22H224M994 0h1v22H994" class="s3"/><text x="230" y="16" class="s8">☐</text><text x="250" y="16" class="s13">toggle the explorer</text></g><g transform="translate(0 198)"><path d="M4 0h1v22H4M214 0h1v22H214" class="s5"/><path d="M224 0h1v22H224M994 0h1v22H994" class="s3"/><text x="230" y="16" class="s8">☑</text><text x="250" y="16" class="s13">open a file</text></g><g transform="translate(0 220)"><rect x="430" width="40" height="22" fill="#4e4e4e"/><path d="M4 0h1v22H4M214 0h1v22H214" class="s5"/><path d="M224 0h1v22H224M994 0h1v22H994" class="s3"/><text x="230" y="16" class="s3">•</text><text x="250" y="16" class="s9">Italic</text><text x="310" y="16" class="s13">,</text><text x="330" y="16" class="s10">bold</text><text x="370" y="16" class="s13">, and</text><text x="430" y="16" class="s7">code</text><text x="480" y="16" class="s13">render live.</text></g><use href="#l5" y="242"/><g transform="translate(0 264)"><path d="M4 0h1v22H4M214 0h1v22H214" class="s5"/><path d="M224 0h1v22H224M994 0h1v22H994" class="s3"/><text x="230" y="16" class="s2">▎</text><text x="240" y="16" class="s13">Your words are safe: every edit lands in the recovery store.</text></g><use href="#l5" y="286"/><use href="#l5" y="308"/><use href="#l6" y="330"/><g transform="translate(0 352)"><rect x="10" width="200" height="22" fill="#3a3a3a"/><path d="M4 0h1v22H4M214 0h1v22H214" class="s5"/><path d="M224 0h1v22H224M994 0h1v22H994" class="s3"/><text x="30" y="16" class="s3">1:</text><text x="90" y="16" class="s14">welcome.md</text></g><use href="#l5" y="374"/><use href="#l5" y="396"/><use href="#l5" y="418"/><use href="#l5" y="440"/><use href="#l5" y="462"/><use href="#l5" y="484"/><use href="#l5" y="506"/><use href="#l5" y="528"/><use href="#l5" y="550"/><use href="#l5" y="572"/><use href="#l5" y="594"/><g transform="translate(0 616)"><path d="M10 10h200v1H10" class="s5"/><path d="M230 10h20v1H230M460 10h180v1H460M970 10h20v1H970" class="s3"/><text y="16" class="s5">╰</text><text x="210" y="16" class="s5">╯</text><text x="220" y="16" class="s3">╰</text><text x="260" y="16" class="s3">^[ back  ^] forward</text><text x="650" y="16" class="s11">tmp</text><text x="680" y="16" class="s3">/</text><text x="690" y="16" class="s11">tmp.bacvfuAom8</text><text x="840" y="16" class="s3">›</text><text x="860" y="16" class="s11">welcome.md</text><text x="990" y="16" class="s3">╯</text></g><g transform="translate(0 638)"><rect x="0" width="1000" height="22" fill="#3a3a3a"/><text y="16" class="s6">^B</text><text x="30" y="16" class="s3">explorer</text><text x="130" y="16" class="s6">^T</text><text x="160" y="16" class="s3">tabs</text><text x="220" y="16" class="s6">^R</text><text x="250" y="16" class="s3">rename</text><text x="330" y="16" class="s6">F1</text><text x="360" y="16" class="s3">help</text><text x="420" y="16" class="s6">^C</text><text x="450" y="16" class="s3">quit</text><text x="510" y="16" class="s6">^W</text><text x="540" y="16" class="s3">close</text><text x="610" y="16" class="s6">^N</text><text x="640" y="16" class="s3">new</text><text x="690" y="16" class="s6">^P</text><text x="720" y="16" class="s3">reading</text><text x="890" y="16" class="s11">Ln 1, Col 1</text></g></g><g transform="translate(2000 0)"><use href="#l3" y="0"/><use href="#l7" y="22"/><use href="#l8" y="44"/><use href="#l4" y="66"/><use href="#l9" y="88"/><use href="#l10" y="110"/><use href="#l11" y="132"/><use href="#l12" y="154"/><use href="#l13" y="176"/><use href="#l14" y="198"/><use href="#l15" y="220"/><use href="#l5" y="242"/><use href="#l5" y="264"/><use href="#l5" y="286"/><use href="#l5" y="308"/><use href="#l6" y="330"/><use href="#l16" y="352"/><use href="#l17" y="374"/><use href="#l5" y="396"/><use href="#l5" y="418"/><use href="#l5" y="440"/><use href="#l5" y="462"/><use href="#l5" y="484"/><use href="#l5" y="506"/><use href="#l5" y="528"/><use href="#l5" y="550"/><use href="#l5" y="572"/><use href="#l5" y="594"/><use href="#l18" y="616"/><use href="#l19" y="638"/></g><g transform="translate(3000 0)"><use href="#l3" y="0"/><use href="#l7" y="22"/><use href="#l8" y="44"/><use href="#l4" y="66"/><use href="#l9" y="88"/><use href="#l10" y="110"/><use href="#l11" y="132"/><use href="#l12" y="154"/><use href="#l13" y="176"/><use href="#l14" y="198"/><use href="#l15" y="220"/><use href="#l5" y="242"/><use href="#l5" y="264"/><use href="#l5" y="286"/><use href="#l5" y="308"/><use href="#l6" y="330"/><use href="#l16" y="352"/><use href="#l17" y="374"/><use href="#l5" y="396"/><use href="#l5" y="418"/><use href="#l5" y="440"/><use href="#l5" y="462"/><use href="#l5" y="484"/><use href="#l5" y="506"/><use href="#l5" y="528"/><use href="#l5" y="550"/><use href="#l5" y="572"/><use href="#l5" y="594"/><use href="#l18" y="616"/><use href="#l19" y="638"/></g><g transform="translate(4000 0)"><g transform="translate(0 0)"><path d="M80 10h130v1H80" class="s3"/><path d="M230 10h760v1H230" class="s5"/><text y="16" class="s3">╭ Files</text><text x="210" y="16" class="s3">╮</text><text x="220" y="16" class="s5">╭</text><text x="990" y="16" class="s5">╮</text></g><g transform="translate(0 22)"><path d="M4 0h1v22H4M214 0h1v22H214" class="s3"/><path d="M224 0h1v22H224M994 0h1v22H994" class="s5"/><text x="10" y="16" class="s12">/tmp/tmp.bacvfuAom8</text><text x="230" y="16" class="s17">tables</text><text x="290" y="16" class="s3">.md</text></g><g transform="translate(0 44)"><rect x="230" width="10" height="22" fill="#ff87af"/><path d="M4 0h1v22H4M214 0h1v22H214" class="s3"/><path d="M224 0h1v22H224M994 0h1v22H994" class="s5"/><text x="30" y="16" class="s6">../</text><text x="230" y="16" class="s0">#</text><text x="250" y="16" class="s15">Layouts</text></g><g transform="translate(0 66)"><path d="M4 0h1v22H4M214 0h1v22H214" class="s3"/><path d="M224 0h1v22H224M994 0h1v22H994" class="s5"/><text x="30" y="16" class="s6">Library/</text></g><g transform="translate(0 88)"><path d="M4 0h1v22H4M214 0h1v22H214" class="s3"/><path d="M224 0h1v22H224" class="s5"/><path d="M234 10h6v1H234M234 10h1v12H234M240 10h120v1H240M360 10h10v1H360M364 10h1v12H364M370 10h150v1H370M520 10h5v1H520M524 10h1v12H524" class="s1"/><path d="M994 0h1v22H994" class="s5"/><text x="30" y="16" class="s13">notes.md</text></g><g transform="translate(0 110)"><path d="M4 0h1v22H4M214 0h1v22H214" class="s3"/><path d="M224 0h1v22H224" class="s5"/><path d="M234 0h1v22H234M364 0h1v22H364M524 0h1v22H524" class="s1"/><path d="M994 0h1v22H994" class="s5"/><text x="10" y="16" class="s13">› tables.md</text><text x="250" y="16" class="s14">Column</text><text x="380" y="16" class="s14">Purpose</text></g><g transform="translate(0 132)"><path d="M4 0h1v22H4M214 0h1v22H214" class="s3"/><path d="M224 0h1v22H224" class="s5"/><path d="M234 10h6v1H234M234 0h1v22H234M240 10h120v1H240M360 10h10v1H360M364 0h1v22H364M370 10h150v1H370M520 10h5v1H520M524 0h1v22H524" class="s1"/><path d="M994 0h1v22H994" class="s5"/><text x="30" y="16" class="s13">welcome.md</text></g><g transform="translate(0 154)"><path d="M4 0h1v22H4M214 0h1v22H214" class="s3"/><path d="M224 0h1v22H224" class="s5"/><path d="M234 0h1v22H234M364 0h1v22H364M524 0h1v22H524" class="s1"/><path d="M994 0h1v22H994" class="s5"/><text x="250" y="16" class="s13">hue</text><text x="380" y="16" class="s13">what a row is</text></g><g transform="translate(0 176)"><path d="M4 0h1v22H4M214 0h1v22H214" class="s3"/><path d="M224 0h1v22H224" class="s5"/><path d="M234 10h6v1H234M234 0h1v22H234M240 10h120v1H240M360 10h10v1H360M364 0h1v22H364M370 10h150v1H370M520 10h5v1H520M524 0h1v22H524" class="s1"/><path d="M994 0h1v22H994" class="s5"/></g><g transform="translate(0 198)"><path d="M4 0h1v22H4M214 0h1v22H214" class="s3"/><path d="M224 0h1v22H224" class="s5"/><path d="M234 0h1v22H234M364 0h1v22H364M524 0h1v22H524" class="s1"/><path d="M994 0h1v22H994" class="s5"/><text x="250" y="16" class="s13">background</text><text x="380" y="16" class="s13">where you are</text></g><g transform="translate(0 220)"><path d="M4 0h1v22H4M214 0h1v22H214" class="s3"/><path d="M224 0h1v22H224" class="s5"/><path d="M234 10h6v1H234M234 0h1v11H234M240 10h120v1H240M360 10h10v1H360M364 0h1v11H364M370 10h150v1H370M520 10h5v1H520M524 0h1v11H524" class="s1"/><path d="M994 0h1v22H994" class="s5"/></g><use href="#l20" y="242"/><use href="#l20" y="264"/><use href="#l20" y="286"/><use href="#l20" y="308"/><g transform="translate(0 330)"><path d="M4 0h1v22H4M70 10h140v1H70M214 0h1v22H214" class="s3"/><path d="M224 0h1v22H224M994 0h1v22H994" class="s5"/><text x="20" y="16" class="s3">Open</text></g><g transform="translate(0 352)"><path d="M4 0h1v22H4M214 0h1v22H214" class="s3"/><path d="M224 0h1v22H224M994 0h1v22H994" class="s5"/><text x="30" y="16" class="s3">1:</text><text x="90" y="16" class="s3">welcome.md</text></g><g transform="translate(0 374)"><rect x="10" width="200" height="22" fill="#3a3a3a"/><path d="M4 0h1v22H4M214 0h1v22H214" class="s3"/><path d="M224 0h1v22H224M994 0h1v22H994" class="s5"/><text x="30" y="16" class="s3">2:</text><text x="90" y="16" class="s14">tables.md</text></g><use href="#l20" y="396"/><use href="#l20" y="418"/><use href="#l20" y="440"/><use href="#l20" y="462"/><use href="#l20" y="484"/><use href="#l20" y="506"/><use href="#l20" y="528"/><use href="#l20" y="550"/><use href="#l20" y="572"/><use href="#l20" y="594"/><g transform="translate(0 616)"><path d="M10 10h200v1H10" class="s3"/><path d="M230 10h20v1H230M460 10h190v1H460M970 10h20v1H970" class="s5"/><text y="16" class="s3">╰</text><text x="210" y="16" class="s3">╯</text><text x="220" y="16" class="s5">╰</text><text x="260" y="16" class="s6">^[</text><text x="290" y="16" class="s3">back  ^] forward</text><text x="660" y="16" class="s11">tmp</text><text x="690" y="16" class="s3">/</text><text x="700" y="16" class="s11">tmp.bacvfuAom8</text><text x="850" y="16" class="s3">›</text><text x="870" y="16" class="s11">tables.md</text><text x="990" y="16" class="s5">╯</text></g><use href="#l2" y="638"/></g><g transform="translate(5000 0)"><use href="#l0" y="0"/><g transform="translate(0 22)"><path d="M4 0h1v22H4M994 0h1v22H994" class="s5"/><text x="10" y="16" class="s17">tables</text><text x="70" y="16" class="s3">.md</text></g><g transform="translate(0 44)"><rect x="10" width="10" height="22" fill="#ff87af"/><path d="M4 0h1v22H4M994 0h1v22H994" class="s5"/><text x="10" y="16" class="s0">#</text><text x="30" y="16" class="s15">Layouts</text></g><use href="#l1" y="66"/><g transform="translate(0 88)"><path d="M4 0h1v22H4" class="s5"/><path d="M14 10h6v1H14M14 10h1v12H14M20 10h120v1H20M140 10h10v1H140M144 10h1v12H144M150 10h150v1H150M300 10h5v1H300M304 10h1v12H304" class="s1"/><path d="M994 0h1v22H994" class="s5"/></g><g transform="translate(0 110)"><path d="M4 0h1v22H4" class="s5"/><path d="M14 0h1v22H14M144 0h1v22H144M304 0h1v22H304" class="s1"/><path d="M994 0h1v22H994" class="s5"/><text x="30" y="16" class="s14">Column</text><text x="160" y="16" class="s14">Purpose</text></g><use href="#l21" y="132"/><g transform="translate(0 154)"><path d="M4 0h1v22H4" class="s5"/><path d="M14 0h1v22H14M144 0h1v22H144M304 0h1v22H304" class="s1"/><path d="M994 0h1v22H994" class="s5"/><text x="30" y="16" class="s13">hue</text><text x="160" y="16" class="s13">what a row is</text></g><use href="#l21" y="176"/><g transform="translate(0 198)"><path d="M4 0h1v22H4" class="s5"/><path d="M14 0h1v22H14M144 0h1v22H144M304 0h1v22H304" class="s1"/><path d="M994 0h1v22H994" class="s5"/><text x="30" y="16" class="s13">background</text><text x="160" y="16" class="s13">where you are</text></g><g transform="translate(0 220)"><path d="M4 0h1v22H4" class="s5"/><path d="M14 10h6v1H14M14 0h1v11H14M20 10h120v1H20M140 10h10v1H140M144 0h1v11H144M150 10h150v1H150M300 10h5v1H300M304 0h1v11H304" class="s1"/><path d="M994 0h1v22H994" class="s5"/></g><use href="#l1" y="242"/><use href="#l1" y="264"/><use href="#l1" y="286"/><use href="#l1" y="308"/><use href="#l1" y="330"/><use href="#l1" y="352"/><use href="#l1" y="374"/><use href="#l1" y="396"/><use href="#l1" y="418"/><use href="#l1" y="440"/><use href="#l1" y="462"/><use href="#l1" y="484"/><use href="#l1" y="506"/><use href="#l1" y="528"/><use href="#l1" y="550"/><use href="#l1" y="572"/><use href="#l1" y="594"/><g transform="translate(0 616)"><path d="M10 10h20v1H10M240 10h410v1H240M970 10h20v1H970" class="s5"/><text y="16" class="s5">╰</text><text x="40" y="16" class="s6">^[</text><text x="70" y="16" class="s3">back  ^] forward</text><text x="660" y="16" class="s11">tmp</text><text x="690" y="16" class="s3">/</text><text x="700" y="16" class="s11">tmp.bacvfuAom8</text><text x="850" y="16" class="s3">›</text><text x="870" y="16" class="s11">tables.md</text><text x="990" y="16" class="s5">╯</text></g><use href="#l2" y="638"/></g></g></g></svg></svg>